<?xml version="1.0" standalone="no"?>
<!DOCTYPE svg PUBLIC "-//W3C//DTD SVG 20010904//EN"
 "http://www.w3.org/TR/2001/REC-SVG-20010904/DTD/svg10.dtd">
<svg version="1.0" xmlns="http://www.w3.org/2000/svg"
 width="1024.000000pt" height="1024.000000pt" viewBox="0 0 1024.000000 1024.000000"
 preserveAspectRatio="xMidYMid meet">

<g transform="translate(0.000000,1024.000000) scale(0.100000,-0.100000)"
fill="#000000" stroke="none">
<path d="M0 5120 l0 -5120 5120 0 5120 0 0 5120 0 5120 -5120 0 -5120 0 0
-5120z m7643 2574 c20 -4 37 -12 37 -18 0 -16 -49 -36 -89 -36 -89 0 -225 -51
-325 -124 -325 -233 -757 -943 -1069 -1756 -147 -385 -257 -853 -257 -1098 0
-175 28 -254 110 -310 30 -21 43 -23 95 -19 49 4 84 18 190 72 72 37 147 81
168 97 62 49 42 14 -30 -52 -143 -132 -255 -193 -405 -224 -269 -55 -393 41
-414 320 -7 91 8 283 36 442 102 594 509 1487 942 2065 48 65 88 120 88 124 0
10 -192 -177 -314 -306 -308 -327 -641 -742 -966 -1204 -111 -158 -437 -607
-496 -683 -21 -28 -61 -80 -88 -115 -137 -177 -268 -315 -376 -396 -82 -62
-190 -103 -190 -73 0 5 20 28 45 51 62 57 105 127 152 249 105 270 143 473
223 1191 22 200 48 405 56 454 38 227 112 490 189 674 19 47 33 86 32 88 -6 5
-162 -239 -220 -342 -65 -117 -202 -390 -351 -702 -360 -750 -593 -1113 -930
-1448 -231 -229 -426 -374 -657 -488 -273 -134 -473 -184 -704 -174 -156 7
-229 24 -355 84 -164 79 -299 237 -369 432 -46 129 -64 343 -41 491 23 145
102 332 202 477 69 101 230 261 343 341 210 149 535 256 815 269 310 15 548
-79 666 -262 108 -167 96 -308 -34 -410 -31 -25 -59 -45 -62 -45 -3 0 -5 46
-5 103 0 94 -2 107 -33 171 -23 48 -53 89 -105 140 -133 133 -260 185 -473
193 -258 11 -492 -55 -689 -195 -91 -64 -208 -179 -268 -263 -49 -69 -123
-217 -151 -302 -22 -67 -46 -209 -46 -276 0 -153 77 -365 174 -483 156 -188
436 -283 732 -248 397 46 717 251 1100 705 244 289 497 699 869 1410 281 537
335 629 496 845 161 216 322 379 473 483 74 50 162 80 188 63 10 -6 18 -14 18
-19 0 -4 -29 -35 -64 -67 -234 -219 -420 -724 -486 -1320 -11 -96 -31 -292
-45 -435 -30 -302 -47 -422 -81 -560 -22 -87 -75 -265 -90 -302 -3 -7 -2 -13
4 -13 5 0 35 37 68 83 32 45 88 120 124 167 66 86 240 325 339 467 120 171
544 728 683 896 185 224 411 460 599 623 332 288 548 413 834 483 86 21 129
24 188 15z m-548 -3539 c-55 -18 -217 -70 -360 -115 -143 -45 -341 -113 -440
-150 -99 -38 -277 -104 -395 -148 -118 -44 -336 -125 -484 -181 -149 -55 -271
-99 -273 -97 -9 9 355 189 562 279 354 153 1050 373 1370 432 118 22 125 15
20 -20z m1046 -70 c134 -25 241 -63 356 -127 59 -33 115 -67 123 -75 8 -9 11
-13 5 -10 -49 26 -256 99 -317 111 -424 87 -1122 -53 -2018 -403 -322 -126
-464 -178 -680 -249 -508 -167 -799 -229 -1130 -239 -216 -7 -213 -12 -61 94
118 82 229 170 431 344 85 73 184 155 220 182 83 63 82 62 35 42 -122 -53
-467 -159 -680 -208 -531 -123 -1234 -150 -1755 -66 -245 39 -548 139 -709
234 -71 42 -111 75 -51 42 142 -78 351 -146 557 -181 243 -42 699 -66 898 -47
66 6 176 15 245 21 426 36 893 139 1445 320 116 39 219 70 228 70 9 0 20 -6
24 -13 13 -21 100 -67 127 -67 14 0 26 -4 26 -10 0 -5 -9 -10 -21 -10 -24 0
-95 -47 -250 -168 -160 -124 -367 -270 -601 -425 -109 -72 -198 -134 -198
-139 0 -30 250 12 523 88 329 92 600 193 1222 459 526 224 1031 377 1415 429
63 9 126 18 140 20 51 9 370 -4 451 -19z"/>
</g>
</svg>
